<svg width="3266" height="552" viewBox="0 0 3266 552" fill="none" xmlns="http://www.w3.org/2000/svg">
<path d="M302.247 85.1607C391.473 84.0512 473.839 141.152 503.177 221.203C506.055 229.039 514 254.122 514 261.108V551.464H425.317V276.709C425.317 270.711 420.485 255.266 418.114 248.939C401.698 205.099 355.42 170.725 305.939 170.811C304.418 170.811 302.247 171.453 302.247 172.701V255.041C302.247 255.682 293.107 255.699 289.053 257.138C277.614 261.177 266.049 275.478 266.049 287.11V551.464H175.556V278.442C175.556 272.722 182.09 251.851 184.569 245.472C201.709 201.199 250.937 168.523 300.437 170.101V85.1607C259.715 87.5355 221.762 96.9656 187.284 118.062C127.505 154.638 91.3798 217.216 88.6107 285.307L88.6831 551.464H0V264.592C11.0582 129.815 126.165 15.5619 266.972 1.97151C272.981 1.39947 291.152 -0.403337 295.948 0.0820341C297.794 0.272716 302.247 0.966103 302.247 2.82091V85.1607Z" fill="#184075"/>
<rect x="289.109" y="373.759" width="33.8597" height="33.8597" rx="16.9299" fill="#184075"/>
<path d="M811.501 112.387C838.024 112.387 859.458 115.161 875.803 120.711C892.457 126.26 904.484 135.817 911.886 149.382C919.596 162.638 923.451 181.444 923.451 205.799C923.451 221.83 921.446 235.549 917.437 246.956C913.736 258.054 907.414 266.995 898.47 273.777C889.835 280.251 878.116 284.413 863.313 286.263V288.575C868.555 289.808 873.953 292.274 879.504 295.974C885.363 299.365 890.606 304.298 895.232 310.772C900.167 317.246 903.867 325.57 906.335 335.743L935.479 435.629H874.415L848.047 337.131C844.654 326.032 840.028 318.325 834.169 314.009C828.309 309.384 820.291 307.072 810.113 307.072C790.067 307.072 772.951 307.072 758.764 307.072C744.578 306.764 732.704 306.456 723.144 306.147C713.892 305.839 705.719 305.685 698.626 305.685L700.014 261.754H810.113C823.991 261.445 834.94 259.904 842.958 257.129C850.977 254.046 856.682 248.805 860.074 241.406C863.467 233.699 865.163 222.909 865.163 209.036C865.163 195.471 863.467 184.989 860.074 177.59C856.682 170.191 850.977 165.105 842.958 162.33C834.94 159.247 823.991 157.706 810.113 157.706C782.974 157.706 759.69 157.86 740.26 158.168C720.831 158.476 707.57 158.785 700.476 159.093L694 116.549C706.336 115.316 717.901 114.391 728.695 113.774C739.798 113.158 751.825 112.849 764.778 112.849C777.731 112.541 793.305 112.387 811.501 112.387ZM750.9 116.549V435.629H694V116.549H750.9Z" fill="#184075"/>
<path d="M1050.56 115.624C1066.6 115.624 1082.94 115.624 1099.59 115.624C1116.56 115.624 1133.21 115.932 1149.56 116.549C1165.9 117.165 1181.32 118.09 1195.82 119.323L1193.04 162.33H1068.14C1059.5 162.33 1053.03 164.488 1048.71 168.804C1044.7 173.12 1042.69 179.902 1042.69 189.151V363.027C1042.69 372.276 1044.7 379.058 1048.71 383.374C1053.03 387.69 1059.5 389.848 1068.14 389.848H1193.04L1195.82 432.855C1181.32 434.088 1165.9 435.013 1149.56 435.629C1133.21 435.938 1116.56 436.092 1099.59 436.092C1082.94 436.4 1066.6 436.554 1050.56 436.554C1030.82 436.554 1014.94 431.159 1002.91 420.369C991.191 409.271 985.177 394.473 984.869 375.975V176.203C985.177 157.706 991.191 143.062 1002.91 132.272C1014.94 121.173 1030.82 115.624 1050.56 115.624ZM993.196 247.418H1175.46V289.962H993.196V247.418Z" fill="#184075"/>
<path d="M1392.1 116.549C1397.04 116.549 1401.36 117.936 1405.06 120.711C1408.76 123.485 1411.38 127.185 1412.92 131.809L1509.61 435.629H1450.39L1377.3 189.614C1376.07 184.681 1374.83 179.748 1373.6 174.816C1372.37 169.883 1371.29 165.104 1370.36 160.48H1357.41C1356.48 165.104 1355.4 169.883 1354.17 174.816C1352.94 179.748 1351.55 184.681 1350.01 189.614L1277.38 435.629H1218.17L1314.85 131.809C1316.08 127.185 1318.55 123.485 1322.25 120.711C1326.26 117.936 1330.73 116.549 1335.67 116.549H1392.1ZM1445.77 299.211V344.53H1281.54V299.211H1445.77Z" fill="#184075"/>
<path d="M1603.81 116.549V361.64C1603.81 370.58 1606.13 377.363 1610.75 381.987C1615.69 386.303 1622.63 388.461 1631.57 388.461H1744.44L1747.22 432.392C1726.25 434.242 1704.35 435.321 1681.53 435.629C1659.02 436.246 1636.66 436.554 1614.45 436.554C1591.01 436.554 1573.74 430.543 1562.64 418.519C1551.85 406.496 1546.45 391.236 1546.45 372.738V116.549H1603.81Z" fill="#184075"/>
<path d="M2011.3 116.549C2013.46 116.549 2015.16 117.011 2016.39 117.936C2017.94 118.861 2019.01 120.402 2019.63 122.56L2131.12 435.629H2111.23L2014.08 158.168C2012.54 153.852 2011 149.536 2009.45 145.22C2007.91 140.904 2006.37 136.588 2004.83 132.272H1991.88C1990.33 136.588 1988.79 140.904 1987.25 145.22C1985.71 149.536 1984.17 153.852 1982.62 158.168L1885.48 435.629H1865.58L1977.07 122.56C1977.69 120.402 1978.77 118.861 1980.31 117.936C1981.85 117.011 1983.55 116.549 1985.4 116.549H2011.3ZM2078.84 306.61V323.258H1916.93V306.61H2078.84Z" fill="#184075"/>
<path d="M2292.75 112.387C2314.65 112.387 2333 115.316 2347.8 121.173C2362.91 126.722 2375.09 135.971 2384.35 148.919C2393.6 161.559 2400.38 178.361 2404.7 199.325C2409.02 219.98 2411.18 245.568 2411.18 276.089C2411.18 306.302 2409.02 331.89 2404.7 352.853C2400.38 373.817 2393.6 390.773 2384.35 403.721C2375.09 416.361 2362.91 425.61 2347.8 431.468C2333 437.017 2314.65 439.791 2292.75 439.791C2272.09 439.791 2252.81 439.329 2234.93 438.404C2217.35 437.788 2200.69 436.863 2184.96 435.629L2193.75 421.294C2208.25 421.602 2223.52 421.911 2239.55 422.219C2255.59 422.527 2273.32 422.681 2292.75 422.681C2317.12 422.681 2336.39 418.057 2350.58 408.808C2365.07 399.559 2375.4 384.299 2381.57 363.027C2388.05 341.447 2391.29 312.467 2391.29 276.089C2391.29 239.711 2388.05 210.886 2381.57 189.614C2375.4 168.033 2365.07 152.619 2350.58 143.37C2336.39 134.121 2317.12 129.497 2292.75 129.497C2273.32 129.497 2255.59 129.651 2239.55 129.959C2223.52 130.268 2207.94 130.576 2192.83 130.884L2184.96 116.549C2200.69 115.316 2217.5 114.391 2235.39 113.774C2253.28 112.849 2272.4 112.387 2292.75 112.387ZM2203.93 116.549V435.629H2184.96V116.549H2203.93Z" fill="#184075"/>
<path d="M2598.14 111C2620.35 111 2639.16 113.928 2654.58 119.786C2670 125.335 2682.34 134.584 2691.59 147.532C2700.84 160.48 2707.47 177.436 2711.48 198.4C2715.8 219.364 2717.96 245.26 2717.96 276.089C2717.96 306.918 2715.8 332.815 2711.48 353.778C2707.47 374.742 2700.84 391.698 2691.59 404.646C2682.34 417.594 2670 426.997 2654.58 432.855C2639.16 438.404 2620.35 441.179 2598.14 441.179C2575.94 441.179 2557.12 438.404 2541.7 432.855C2526.28 426.997 2513.95 417.594 2504.7 404.646C2495.44 391.698 2488.66 374.742 2484.34 353.778C2480.02 332.815 2477.86 306.918 2477.86 276.089C2477.86 245.26 2480.02 219.364 2484.34 198.4C2488.66 177.436 2495.44 160.48 2504.7 147.532C2513.95 134.584 2526.28 125.335 2541.7 119.786C2557.12 113.928 2575.94 111 2598.14 111ZM2598.14 128.11C2573.16 128.11 2553.42 132.888 2538.93 142.445C2524.43 151.694 2513.95 167.108 2507.47 188.689C2500.99 210.269 2497.76 239.403 2497.76 276.089C2497.76 312.776 2500.99 341.909 2507.47 363.489C2513.95 385.07 2524.43 400.639 2538.93 410.196C2553.42 419.444 2573.16 424.069 2598.14 424.069C2622.81 424.069 2642.4 419.444 2656.89 410.196C2671.7 400.639 2682.18 385.07 2688.35 363.489C2694.83 341.909 2698.06 312.776 2698.06 276.089C2698.06 239.403 2694.83 210.269 2688.35 188.689C2682.18 167.108 2671.7 151.694 2656.89 142.445C2642.4 132.888 2622.81 128.11 2598.14 128.11Z" fill="#184075"/>
<path d="M2891 112.849C2916.29 112.849 2936.49 115.316 2951.6 120.248C2966.71 124.873 2977.66 133.196 2984.44 145.22C2991.23 157.243 2994.62 174.199 2994.62 196.088C2994.62 218.901 2990.3 236.32 2981.67 248.343C2973.34 260.366 2959.62 267.303 2940.5 269.153V271.002C2964.24 273.16 2980.74 281.484 2990 295.974C2999.25 310.464 3003.87 330.502 3003.87 356.091C3003.87 377.979 3000.63 394.935 2994.16 406.958C2987.68 418.982 2977.2 427.46 2962.7 432.392C2948.21 437.017 2928.93 439.329 2904.88 439.329C2888.22 439.329 2873.88 439.175 2861.85 438.867C2850.13 438.867 2839.34 438.558 2829.47 437.942C2819.6 437.325 2808.96 436.554 2797.55 435.629L2804.03 421.294C2810.51 421.602 2822.69 421.911 2840.57 422.219C2858.46 422.527 2879.28 422.681 2903.03 422.681C2923.38 422.681 2939.42 420.832 2951.14 417.132C2962.86 413.433 2971.34 406.65 2976.58 396.785C2981.82 386.92 2984.44 372.738 2984.44 354.241C2984.44 334.202 2981.67 318.787 2976.12 307.997C2970.57 296.899 2961.47 289.191 2948.82 284.875C2936.49 280.559 2919.83 278.247 2898.86 277.939H2803.57V262.678H2898.86C2917.67 262.37 2932.63 260.52 2943.73 257.129C2955.15 253.43 2963.16 246.956 2967.79 237.707C2972.72 228.15 2975.19 214.739 2975.19 197.475C2975.19 178.978 2972.42 164.95 2966.86 155.393C2961.62 145.528 2952.68 138.746 2940.03 135.046C2927.7 131.347 2911.2 129.497 2890.54 129.497C2876.35 129.497 2863.55 129.651 2852.14 129.959C2840.73 129.959 2830.86 130.114 2822.53 130.422C2814.51 130.422 2808.35 130.576 2804.03 130.884L2797.55 116.549C2807.42 115.316 2816.67 114.545 2825.31 114.237C2833.94 113.62 2843.35 113.312 2853.53 113.312C2864.01 113.003 2876.5 112.849 2891 112.849ZM2816.52 116.549V435.629H2797.55V116.549H2816.52Z" fill="#184075"/>
<path d="M3129.82 116.549C3144.93 116.549 3160.04 116.549 3175.16 116.549C3190.58 116.549 3205.84 116.703 3220.95 117.011C3236.06 117.319 3251.02 117.782 3265.83 118.398L3264.9 132.734H3133.06C3122.57 132.734 3114.09 136.125 3107.62 142.908C3101.14 149.382 3097.9 158.014 3097.9 168.804V383.374C3097.9 394.164 3101.14 402.951 3107.62 409.733C3114.09 416.207 3122.57 419.444 3133.06 419.444H3264.9L3265.83 433.78C3251.02 434.396 3236.06 434.859 3220.95 435.167C3205.84 435.475 3190.58 435.629 3175.16 435.629C3160.04 435.629 3144.93 435.629 3129.82 435.629C3114.71 435.629 3102.37 431.005 3092.81 421.756C3083.56 412.508 3078.93 400.793 3078.93 386.611V165.567C3078.93 151.077 3083.56 139.362 3092.81 130.422C3102.37 121.173 3114.71 116.549 3129.82 116.549ZM3086.8 257.129L3245.93 257.592V272.852L3086.8 273.314V257.129Z" fill="#184075"/>
</svg>
