<svg width="3314" height="741" viewBox="0 0 3314 741" fill="none" xmlns="http://www.w3.org/2000/svg">
<path opacity="0.7" d="M938.154 486.736L3306.93 484.203" stroke="white" stroke-width="13.5092" stroke-linecap="round"/>
<path d="M1054.82 72.2731C1079.16 72.2731 1098.83 74.8193 1113.83 79.9118C1129.11 85.0042 1140.15 93.7745 1146.94 106.223C1154.02 118.388 1157.55 135.646 1157.55 157.996C1157.55 172.707 1155.71 185.297 1152.03 195.765C1148.64 205.95 1142.84 214.154 1134.63 220.378C1126.71 226.319 1115.95 230.139 1102.37 231.836V233.958C1107.18 235.09 1112.13 237.353 1117.22 240.748C1122.6 243.86 1127.41 248.387 1131.66 254.328C1136.19 260.269 1139.58 267.908 1141.85 277.244L1168.59 368.908H1112.56L1088.36 278.517C1085.25 268.332 1081 261.259 1075.62 257.298C1070.25 253.055 1062.89 250.933 1053.55 250.933C1035.15 250.933 1019.45 250.933 1006.43 250.933C993.412 250.65 982.517 250.367 973.744 250.084C965.254 249.801 957.754 249.66 951.245 249.66L952.519 209.345H1053.55C1066.28 209.062 1076.33 207.647 1083.69 205.101C1091.05 202.272 1096.28 197.462 1099.4 190.672C1102.51 183.599 1104.07 173.697 1104.07 160.966C1104.07 148.518 1102.51 138.899 1099.4 132.109C1096.28 125.319 1091.05 120.651 1083.69 118.105C1076.33 115.276 1066.28 113.861 1053.55 113.861C1028.65 113.861 1007.28 114.003 989.45 114.286C971.621 114.569 959.452 114.852 952.943 115.134L947 76.0924C958.32 74.9608 968.933 74.112 978.838 73.5462C989.026 72.9804 1000.06 72.6975 1011.95 72.6975C1023.83 72.4146 1038.13 72.2731 1054.82 72.2731ZM999.214 76.0924V368.908H947V76.0924H999.214Z" fill="#D6995C"/>
<path d="M1274.19 75.2437C1288.91 75.2437 1303.91 75.2437 1319.19 75.2437C1334.75 75.2437 1350.04 75.5266 1365.03 76.0924C1380.03 76.6583 1394.18 77.507 1407.48 78.6387L1404.94 118.105H1290.32C1282.4 118.105 1276.45 120.085 1272.49 124.046C1268.81 128.007 1266.97 134.231 1266.97 142.718V302.282C1266.97 310.769 1268.81 316.993 1272.49 320.954C1276.45 324.915 1282.4 326.895 1290.32 326.895H1404.94L1407.48 366.361C1394.18 367.493 1380.03 368.342 1365.03 368.908C1350.04 369.191 1334.75 369.332 1319.19 369.332C1303.91 369.615 1288.91 369.756 1274.19 369.756C1256.08 369.756 1241.5 364.805 1230.47 354.903C1219.71 344.719 1214.19 331.139 1213.91 314.164V130.836C1214.19 113.861 1219.71 100.423 1230.47 90.521C1241.5 80.3361 1256.08 75.2437 1274.19 75.2437ZM1221.55 196.189H1388.81V235.231H1221.55V196.189Z" fill="#D6995C"/>
<path d="M1587.61 76.0924C1592.13 76.0924 1596.1 77.3655 1599.49 79.9118C1602.89 82.458 1605.29 85.8529 1606.71 90.0966L1695.43 368.908H1641.09L1574.02 143.143C1572.89 138.616 1571.76 134.09 1570.63 129.563C1569.49 125.036 1568.5 120.651 1567.65 116.408H1555.77C1554.92 120.651 1553.93 125.036 1552.8 129.563C1551.66 134.09 1550.39 138.616 1548.98 143.143L1482.33 368.908H1427.99L1516.71 90.0966C1517.85 85.8529 1520.11 82.458 1523.51 79.9118C1527.18 77.3655 1531.29 76.0924 1535.82 76.0924H1587.61ZM1636.85 243.718V285.307H1486.15V243.718H1636.85Z" fill="#D6995C"/>
<path d="M1781.88 76.0924V301.008C1781.88 309.213 1784 315.437 1788.25 319.681C1792.77 323.641 1799.14 325.622 1807.35 325.622H1910.93L1913.47 365.937C1894.23 367.634 1874.14 368.625 1853.19 368.908C1832.53 369.473 1812.02 369.756 1791.64 369.756C1770.13 369.756 1754.29 364.24 1744.1 353.206C1734.19 342.172 1729.24 328.168 1729.24 311.193V76.0924H1781.88Z" fill="#D6995C"/>
<path d="M2155.81 76.0924C2157.79 76.0924 2159.34 76.5168 2160.48 77.3655C2161.89 78.2143 2162.88 79.6289 2163.45 81.6092L2265.75 368.908H2247.5L2158.35 114.286C2156.94 110.325 2155.52 106.364 2154.11 102.403C2152.69 98.4426 2151.28 94.4818 2149.86 90.521H2137.98C2136.56 94.4818 2135.15 98.4426 2133.73 102.403C2132.32 106.364 2130.9 110.325 2129.49 114.286L2040.34 368.908H2022.09L2124.39 81.6092C2124.96 79.6289 2125.95 78.2143 2127.36 77.3655C2128.78 76.5168 2130.34 76.0924 2132.03 76.0924H2155.81ZM2217.78 250.508V265.786H2069.21V250.508H2217.78Z" fill="#D6995C"/>
<path d="M2414.07 72.2731C2434.16 72.2731 2451 74.9608 2464.59 80.3361C2478.45 85.4286 2489.63 93.916 2498.12 105.798C2506.61 117.398 2512.84 132.817 2516.8 152.055C2520.76 171.01 2522.74 194.492 2522.74 222.5C2522.74 250.226 2520.76 273.707 2516.8 292.945C2512.84 312.183 2506.61 327.744 2498.12 339.626C2489.63 351.226 2478.45 359.713 2464.59 365.088C2451 370.181 2434.16 372.727 2414.07 372.727C2395.11 372.727 2377.42 372.303 2361.01 371.454C2344.88 370.888 2329.6 370.039 2315.16 368.908L2323.23 355.752C2336.53 356.035 2350.54 356.318 2365.25 356.601C2379.97 356.884 2396.24 357.025 2414.07 357.025C2436.43 357.025 2454.12 352.782 2467.13 344.294C2480.44 335.807 2489.92 321.803 2495.58 302.282C2501.52 282.478 2504.49 255.884 2504.49 222.5C2504.49 189.116 2501.52 162.664 2495.58 143.143C2489.92 123.339 2480.44 109.193 2467.13 100.706C2454.12 92.2185 2436.43 87.9748 2414.07 87.9748C2396.24 87.9748 2379.97 88.1162 2365.25 88.3992C2350.54 88.6821 2336.25 88.965 2322.38 89.2479L2315.16 76.0924C2329.6 74.9608 2345.02 74.112 2361.43 73.5462C2377.85 72.6975 2395.39 72.2731 2414.07 72.2731ZM2332.57 76.0924V368.908H2315.16V76.0924H2332.57Z" fill="#D6995C"/>
<path d="M2694.31 71C2714.69 71 2731.95 73.6877 2746.1 79.063C2760.25 84.1555 2771.57 92.6429 2780.06 104.525C2788.55 116.408 2794.63 131.968 2798.31 151.206C2802.27 170.444 2804.25 194.209 2804.25 222.5C2804.25 250.791 2802.27 274.556 2798.31 293.794C2794.63 313.032 2788.55 328.592 2780.06 340.475C2771.57 352.357 2760.25 360.986 2746.1 366.361C2731.95 371.454 2714.69 374 2694.31 374C2673.93 374 2656.67 371.454 2642.52 366.361C2628.37 360.986 2617.05 352.357 2608.56 340.475C2600.07 328.592 2593.84 313.032 2589.88 293.794C2585.92 274.556 2583.94 250.791 2583.94 222.5C2583.94 194.209 2585.92 170.444 2589.88 151.206C2593.84 131.968 2600.07 116.408 2608.56 104.525C2617.05 92.6429 2628.37 84.1555 2642.52 79.063C2656.67 73.6877 2673.93 71 2694.31 71ZM2694.31 86.7017C2671.39 86.7017 2653.27 91.0868 2639.97 99.8572C2626.67 108.345 2617.05 122.49 2611.11 142.294C2605.16 162.098 2602.19 188.833 2602.19 222.5C2602.19 256.167 2605.16 282.902 2611.11 302.706C2617.05 322.51 2626.67 336.797 2639.97 345.567C2653.27 354.055 2671.39 358.298 2694.31 358.298C2716.95 358.298 2734.92 354.055 2748.22 345.567C2761.8 336.797 2771.43 322.51 2777.09 302.706C2783.03 282.902 2786 256.167 2786 222.5C2786 188.833 2783.03 162.098 2777.09 142.294C2771.43 122.49 2761.8 108.345 2748.22 99.8572C2734.92 91.0868 2716.95 86.7017 2694.31 86.7017Z" fill="#D6995C"/>
<path d="M2963.04 72.6975C2986.25 72.6975 3004.79 74.9608 3018.65 79.4874C3032.52 83.7311 3042.57 91.3697 3048.79 102.403C3055.02 113.437 3058.13 128.997 3058.13 149.084C3058.13 170.02 3054.17 186.004 3046.25 197.038C3038.61 208.071 3026.01 214.437 3008.47 216.134V217.832C3030.26 219.812 3045.4 227.451 3053.89 240.748C3062.38 254.045 3066.62 272.434 3066.62 295.916C3066.62 316.003 3063.65 331.563 3057.71 342.597C3051.77 353.63 3042.14 361.41 3028.84 365.937C3015.54 370.181 2997.85 372.303 2975.78 372.303C2960.5 372.303 2947.34 372.161 2936.3 371.878C2925.55 371.878 2915.64 371.595 2906.59 371.029C2897.53 370.464 2887.77 369.756 2877.3 368.908L2883.24 355.752C2889.18 356.035 2900.36 356.318 2916.77 356.601C2933.19 356.884 2952.29 357.025 2974.08 357.025C2992.76 357.025 3007.48 355.328 3018.23 351.933C3028.98 348.538 3036.77 342.314 3041.58 333.261C3046.39 324.207 3048.79 311.193 3048.79 294.218C3048.79 275.829 3046.25 261.683 3041.15 251.782C3036.06 241.597 3027.71 234.524 3016.11 230.563C3004.79 226.602 2989.51 224.48 2970.26 224.197H2882.81V210.193H2970.26C2987.52 209.91 3001.25 208.213 3011.44 205.101C3021.91 201.706 3029.27 195.765 3033.51 187.277C3038.04 178.507 3040.3 166.2 3040.3 150.357C3040.3 133.382 3037.76 120.51 3032.66 111.74C3027.85 102.686 3019.64 96.4622 3008.04 93.0672C2996.72 89.6723 2981.58 87.9748 2962.62 87.9748C2949.6 87.9748 2937.86 88.1162 2927.39 88.3992C2916.92 88.3992 2907.86 88.5406 2900.22 88.8235C2892.86 88.8235 2887.2 88.965 2883.24 89.2479L2877.3 76.0924C2886.35 74.9608 2894.84 74.2535 2902.77 73.9706C2910.69 73.4048 2919.32 73.1218 2928.66 73.1218C2938.28 72.8389 2949.74 72.6975 2963.04 72.6975ZM2894.7 76.0924V368.908H2877.3V76.0924H2894.7Z" fill="#D6995C"/>
<path d="M3182.2 76.0924C3196.06 76.0924 3209.93 76.0924 3223.8 76.0924C3237.95 76.0924 3251.96 76.2339 3265.82 76.5168C3279.69 76.7997 3293.42 77.2241 3307 77.7899L3306.15 90.9454H3185.17C3175.55 90.9454 3167.76 94.0574 3161.82 100.282C3155.88 106.223 3152.91 114.144 3152.91 124.046V320.954C3152.91 330.856 3155.88 338.919 3161.82 345.143C3167.76 351.084 3175.55 354.055 3185.17 354.055H3306.15L3307 367.21C3293.42 367.776 3279.69 368.2 3265.82 368.483C3251.96 368.766 3237.95 368.908 3223.8 368.908C3209.93 368.908 3196.06 368.908 3182.2 368.908C3168.33 368.908 3157.01 364.664 3148.24 356.176C3139.75 347.689 3135.5 336.938 3135.5 323.924V121.076C3135.5 107.779 3139.75 97.028 3148.24 88.8235C3157.01 80.3361 3168.33 76.0924 3182.2 76.0924ZM3142.72 205.101L3288.75 205.525V219.529L3142.72 219.954V205.101Z" fill="#D6995C"/>
<path d="M405.966 114.385C525.811 112.895 636.443 189.59 675.849 297.112C679.714 307.636 690.386 341.327 690.386 350.71V740.705H571.27V371.665C571.27 363.609 564.779 342.864 561.595 334.365C539.546 275.482 477.387 229.311 410.925 229.427C408.883 229.427 405.966 230.289 405.966 231.965V342.561C405.966 343.423 393.69 343.446 388.245 345.378C372.881 350.803 357.348 370.012 357.348 385.635V740.705H235.801V373.993C235.801 366.31 244.576 338.277 247.907 329.709C270.928 270.243 337.049 226.354 403.535 228.473V114.385C348.839 117.574 297.863 130.241 251.553 158.576C171.259 207.704 122.738 291.757 119.019 383.214L119.116 740.705H0V355.39C14.853 174.362 169.46 20.9022 358.587 2.64807C366.658 1.87972 391.065 -0.541747 397.507 0.110185C399.986 0.366301 405.966 1.29763 405.966 3.78895V114.385Z" fill="#D6995C"/>
<rect x="388.322" y="502.019" width="45.4791" height="45.4791" rx="22.7395" fill="white"/>
<path d="M958.528 668.208V646.279L960.798 652.613L937 612.792H947.881L966.982 644.854H960.876L980.134 612.792H990.154L966.356 652.613L968.705 646.279V668.208H958.528Z" fill="white"/>
<path d="M1056.92 669C1052.64 669 1048.7 668.288 1045.1 666.863C1041.5 665.438 1038.37 663.458 1035.7 660.925C1033.04 658.339 1030.98 655.331 1029.52 651.9C1028.06 648.417 1027.33 644.617 1027.33 640.5C1027.33 636.383 1028.06 632.61 1029.52 629.179C1030.98 625.696 1033.04 622.688 1035.7 620.154C1038.37 617.568 1041.5 615.563 1045.1 614.138C1048.7 612.713 1052.61 612 1056.84 612C1061.12 612 1065.03 612.713 1068.58 614.138C1072.18 615.563 1075.32 617.568 1077.98 620.154C1080.64 622.688 1082.7 625.696 1084.16 629.179C1085.62 632.61 1086.35 636.383 1086.35 640.5C1086.35 644.617 1085.62 648.417 1084.16 651.9C1082.7 655.383 1080.64 658.392 1077.98 660.925C1075.32 663.458 1072.18 665.438 1068.58 666.863C1065.03 668.288 1061.15 669 1056.92 669ZM1056.84 659.975C1059.61 659.975 1062.16 659.5 1064.51 658.55C1066.86 657.6 1068.9 656.254 1070.62 654.513C1072.34 652.718 1073.67 650.66 1074.61 648.338C1075.6 645.963 1076.1 643.35 1076.1 640.5C1076.1 637.65 1075.6 635.064 1074.61 632.742C1073.67 630.367 1072.34 628.308 1070.62 626.567C1068.9 624.772 1066.86 623.4 1064.51 622.45C1062.16 621.5 1059.61 621.025 1056.84 621.025C1054.07 621.025 1051.52 621.5 1049.17 622.45C1046.87 623.4 1044.84 624.772 1043.06 626.567C1041.34 628.308 1039.98 630.367 1038.99 632.742C1038.05 635.064 1037.58 637.65 1037.58 640.5C1037.58 643.297 1038.05 645.883 1038.99 648.258C1039.98 650.633 1041.34 652.718 1043.06 654.513C1044.78 656.254 1046.82 657.6 1049.17 658.55C1051.52 659.5 1054.07 659.975 1056.84 659.975Z" fill="white"/>
<path d="M1157.5 669C1149.98 669 1144.08 666.863 1139.8 662.588C1135.58 658.313 1133.46 652.138 1133.46 644.063V612.792H1143.64V643.667C1143.64 649.367 1144.84 653.51 1147.24 656.096C1149.69 658.682 1153.14 659.975 1157.58 659.975C1162.01 659.975 1165.43 658.682 1167.83 656.096C1170.23 653.51 1171.43 649.367 1171.43 643.667V612.792H1181.45V644.063C1181.45 652.138 1179.31 658.313 1175.03 662.588C1170.8 666.863 1164.96 669 1157.5 669Z" fill="white"/>
<path d="M1232.5 668.208V612.792H1255.04C1259.9 612.792 1264.05 613.583 1267.49 615.167C1270.99 616.75 1273.67 619.019 1275.55 621.975C1277.43 624.931 1278.37 628.44 1278.37 632.504C1278.37 636.568 1277.43 640.078 1275.55 643.033C1273.67 645.936 1270.99 648.179 1267.49 649.763C1264.05 651.293 1259.9 652.058 1255.04 652.058H1238.13L1242.67 647.388V668.208H1232.5ZM1268.35 668.208L1254.49 648.1H1265.38L1279.31 668.208H1268.35ZM1242.67 648.496L1238.13 643.588H1254.57C1259.06 643.588 1262.43 642.611 1264.67 640.658C1266.97 638.706 1268.12 635.988 1268.12 632.504C1268.12 628.968 1266.97 626.25 1264.67 624.35C1262.43 622.45 1259.06 621.5 1254.57 621.5H1238.13L1242.67 616.433V648.496Z" fill="white"/>
<path d="M1394.29 638.283H1421.61V646.992H1394.29V638.283ZM1395.15 668.208H1384.98V612.792H1424.98V621.421H1395.15V668.208Z" fill="white"/>
<path d="M1495.18 669C1487.66 669 1481.77 666.863 1477.49 662.588C1473.26 658.313 1471.15 652.138 1471.15 644.063V612.792H1481.32V643.667C1481.32 649.367 1482.52 653.51 1484.92 656.096C1487.38 658.682 1490.82 659.975 1495.26 659.975C1499.69 659.975 1503.11 658.682 1505.51 656.096C1507.91 653.51 1509.11 649.367 1509.11 643.667V612.792H1519.13V644.063C1519.13 652.138 1516.99 658.313 1512.71 662.588C1508.49 666.863 1502.64 669 1495.18 669Z" fill="white"/>
<path d="M1580.3 668.208V621.5H1562.14V612.792H1608.64V621.5H1590.48V668.208H1580.3Z" fill="white"/>
<path d="M1675.64 669C1668.12 669 1662.23 666.863 1657.95 662.588C1653.72 658.313 1651.61 652.138 1651.61 644.063V612.792H1661.78V643.667C1661.78 649.367 1662.98 653.51 1665.38 656.096C1667.84 658.682 1671.28 659.975 1675.72 659.975C1680.15 659.975 1683.57 658.682 1685.97 656.096C1688.37 653.51 1689.57 649.367 1689.57 643.667V612.792H1699.59V644.063C1699.59 652.138 1697.45 658.313 1693.18 662.588C1688.95 666.863 1683.1 669 1675.64 669Z" fill="white"/>
<path d="M1750.64 668.208V612.792H1773.19C1778.04 612.792 1782.19 613.583 1785.63 615.167C1789.13 616.75 1791.82 619.019 1793.7 621.975C1795.57 624.931 1796.51 628.44 1796.51 632.504C1796.51 636.568 1795.57 640.078 1793.7 643.033C1791.82 645.936 1789.13 648.179 1785.63 649.763C1782.19 651.293 1778.04 652.058 1773.19 652.058H1756.28L1760.82 647.388V668.208H1750.64ZM1786.49 668.208L1772.64 648.1H1783.52L1797.45 668.208H1786.49ZM1760.82 648.496L1756.28 643.588H1772.72C1777.2 643.588 1780.57 642.611 1782.81 640.658C1785.11 638.706 1786.26 635.988 1786.26 632.504C1786.26 628.968 1785.11 626.25 1782.81 624.35C1780.57 622.45 1777.2 621.5 1772.72 621.5H1756.28L1760.82 616.433V648.496Z" fill="white"/>
<path d="M1854.09 635.829H1881.33V644.3H1854.09V635.829ZM1854.87 659.579H1885.79V668.208H1844.69V612.792H1884.7V621.421H1854.87V659.579Z" fill="white"/>
<path d="M2000.89 669C1997.39 669 1994.16 668.314 1991.18 666.942C1988.26 665.569 1985.86 663.59 1983.98 661.004L1989.77 653.958C1991.29 656.069 1992.93 657.653 1994.71 658.708C1996.53 659.764 1998.52 660.292 2000.66 660.292C2006.34 660.292 2009.19 656.888 2009.19 650.079V621.421H1989.7V612.792H2019.37V649.525C2019.37 656.069 2017.77 660.951 2014.59 664.171C2011.46 667.39 2006.89 669 2000.89 669Z" fill="white"/>
<path d="M2094 669C2086.48 669 2080.58 666.863 2076.3 662.588C2072.08 658.313 2069.96 652.138 2069.96 644.063V612.792H2080.14V643.667C2080.14 649.367 2081.34 653.51 2083.74 656.096C2086.19 658.682 2089.64 659.975 2094.07 659.975C2098.51 659.975 2101.93 658.682 2104.33 656.096C2106.73 653.51 2107.93 649.367 2107.93 643.667V612.792H2117.95V644.063C2117.95 652.138 2115.81 658.313 2111.53 662.588C2107.3 666.863 2101.46 669 2094 669Z" fill="white"/>
<path d="M2185.98 669C2181.7 669 2177.61 668.393 2173.69 667.179C2169.78 665.913 2166.67 664.303 2164.38 662.35L2167.9 654.354C2170.09 656.096 2172.81 657.547 2176.04 658.708C2179.28 659.869 2182.59 660.45 2185.98 660.45C2188.85 660.45 2191.18 660.133 2192.95 659.5C2194.73 658.867 2196.03 658.022 2196.87 656.967C2197.7 655.858 2198.12 654.618 2198.12 653.246C2198.12 651.557 2197.52 650.211 2196.32 649.208C2195.12 648.153 2193.55 647.335 2191.62 646.754C2189.74 646.121 2187.63 645.54 2185.28 645.013C2182.98 644.485 2180.66 643.878 2178.31 643.192C2176.02 642.453 2173.9 641.529 2171.97 640.421C2170.09 639.26 2168.55 637.729 2167.35 635.829C2166.15 633.929 2165.55 631.501 2165.55 628.546C2165.55 625.538 2166.33 622.793 2167.9 620.313C2169.52 617.779 2171.95 615.774 2175.18 614.296C2178.47 612.765 2182.62 612 2187.63 612C2190.92 612 2194.18 612.422 2197.41 613.267C2200.65 614.111 2203.47 615.325 2205.87 616.908L2202.66 624.904C2200.21 623.426 2197.67 622.344 2195.06 621.658C2192.46 620.919 2189.95 620.55 2187.55 620.55C2184.73 620.55 2182.43 620.893 2180.66 621.579C2178.94 622.265 2177.66 623.163 2176.82 624.271C2176.04 625.379 2175.65 626.646 2175.65 628.071C2175.65 629.76 2176.22 631.132 2177.37 632.188C2178.57 633.19 2180.11 633.982 2181.99 634.563C2183.92 635.143 2186.06 635.724 2188.41 636.304C2190.76 636.832 2193.08 637.439 2195.38 638.125C2197.73 638.811 2199.84 639.708 2201.72 640.817C2203.65 641.925 2205.19 643.429 2206.34 645.329C2207.54 647.229 2208.14 649.631 2208.14 652.533C2208.14 655.489 2207.33 658.233 2205.71 660.767C2204.15 663.247 2201.72 665.253 2198.43 666.783C2195.14 668.261 2190.99 669 2185.98 669Z" fill="white"/>
<path d="M2265.37 668.208V621.5H2247.21V612.792H2293.71V621.5H2275.55V668.208H2265.37Z" fill="white"/>
<path d="M2388.82 668.208L2413.48 612.792H2423.5L2448.24 668.208H2437.59L2416.38 618.254H2420.45L2399.31 668.208H2388.82ZM2400.17 655.383L2402.91 647.308H2432.5L2435.24 655.383H2400.17Z" fill="white"/>
<path d="M2567.42 669C2563.14 669 2559.04 668.393 2555.13 667.179C2551.21 665.913 2548.11 664.303 2545.81 662.35L2549.33 654.354C2551.52 656.096 2554.24 657.547 2557.47 658.708C2560.71 659.869 2564.02 660.45 2567.42 660.45C2570.29 660.45 2572.61 660.133 2574.38 659.5C2576.16 658.867 2577.46 658.022 2578.3 656.967C2579.13 655.858 2579.55 654.618 2579.55 653.246C2579.55 651.557 2578.95 650.211 2577.75 649.208C2576.55 648.153 2574.98 647.335 2573.05 646.754C2571.17 646.121 2569.06 645.54 2566.71 645.013C2564.41 644.485 2562.09 643.878 2559.74 643.192C2557.45 642.453 2555.33 641.529 2553.4 640.421C2551.52 639.26 2549.98 637.729 2548.78 635.829C2547.58 633.929 2546.98 631.501 2546.98 628.546C2546.98 625.538 2547.77 622.793 2549.33 620.313C2550.95 617.779 2553.38 615.774 2556.61 614.296C2559.9 612.765 2564.05 612 2569.06 612C2572.35 612 2575.61 612.422 2578.84 613.267C2582.08 614.111 2584.9 615.325 2587.3 616.908L2584.09 624.904C2581.64 623.426 2579.11 622.344 2576.5 621.658C2573.89 620.919 2571.38 620.55 2568.98 620.55C2566.16 620.55 2563.87 620.893 2562.09 621.579C2560.37 622.265 2559.09 623.163 2558.26 624.271C2557.47 625.379 2557.08 626.646 2557.08 628.071C2557.08 629.76 2557.66 631.132 2558.8 632.188C2560 633.19 2561.54 633.982 2563.42 634.563C2565.35 635.143 2567.49 635.724 2569.84 636.304C2572.19 636.832 2574.51 637.439 2576.81 638.125C2579.16 638.811 2581.27 639.708 2583.15 640.817C2585.08 641.925 2586.62 643.429 2587.77 645.329C2588.97 647.229 2589.57 649.631 2589.57 652.533C2589.57 655.489 2588.76 658.233 2587.14 660.767C2585.58 663.247 2583.15 665.253 2579.86 666.783C2576.57 668.261 2572.43 669 2567.42 669Z" fill="white"/>
<path d="M2646.81 668.208V621.5H2628.64V612.792H2675.14V621.5H2656.98V668.208H2646.81Z" fill="white"/>
<path d="M2728.97 635.829H2756.21V644.3H2728.97V635.829ZM2729.75 659.579H2760.67V668.208H2719.57V612.792H2759.58V621.421H2729.75V659.579Z" fill="white"/>
<path d="M2808.81 668.208V612.792H2831.36C2836.21 612.792 2840.36 613.583 2843.8 615.167C2847.3 616.75 2849.99 619.019 2851.87 621.975C2853.75 624.931 2854.69 628.44 2854.69 632.504C2854.69 636.568 2853.75 640.078 2851.87 643.033C2849.99 645.989 2847.3 648.258 2843.8 649.842C2840.36 651.425 2836.21 652.217 2831.36 652.217H2814.45L2818.99 647.388V668.208H2808.81ZM2818.99 648.496L2814.45 643.508H2830.89C2835.38 643.508 2838.74 642.558 2840.99 640.658C2843.28 638.706 2844.43 635.988 2844.43 632.504C2844.43 628.968 2843.28 626.25 2840.99 624.35C2838.74 622.45 2835.38 621.5 2830.89 621.5H2814.45L2818.99 616.433V648.496Z" fill="white"/>
<path d="M2953.08 668.208L2977.74 612.792H2987.76L3012.5 668.208H3001.85L2980.64 618.254H2984.71L2963.57 668.208H2953.08ZM2964.44 655.383L2967.17 647.308H2996.77L2999.51 655.383H2964.44Z" fill="white"/>
<path d="M3066.27 668.208L3048.11 612.792H3058.68L3074.89 662.904H3069.64L3086.47 612.792H3095.87L3112.23 662.904H3107.14L3123.73 612.792H3133.44L3115.28 668.208H3104.48L3089.52 623.004H3092.34L3077.16 668.208H3066.27Z" fill="white"/>
<path d="M3169.02 668.208L3193.68 612.792H3203.7L3228.43 668.208H3217.79L3196.57 618.254H3200.64L3179.51 668.208H3169.02ZM3180.37 655.383L3183.11 647.308H3212.7L3215.44 655.383H3180.37Z" fill="white"/>
<path d="M3282.37 668.208V646.279L3284.64 652.613L3260.85 612.792H3271.73L3290.83 644.854H3284.72L3303.98 612.792H3314L3290.2 652.613L3292.55 646.279V668.208H3282.37Z" fill="white"/>
</svg>
