<svg width="2993" height="741" viewBox="0 0 2993 741" fill="none" xmlns="http://www.w3.org/2000/svg">
<path opacity="0.7" d="M2986 520.735C2989.73 520.735 2992.75 523.759 2992.75 527.49C2992.75 531.22 2989.73 534.245 2986 534.245H932C928.27 534.245 925.245 531.22 925.245 527.49C925.245 523.759 928.27 520.735 932 520.735H2986Z" fill="white"/>
<path d="M1590.93 206.607V382.416C1590.93 388.829 1592.59 393.694 1595.91 397.011C1599.45 400.107 1604.42 401.655 1610.84 401.655H1691.77L1693.76 433.168C1678.73 434.495 1663.03 435.269 1646.66 435.49C1630.52 435.932 1614.49 436.153 1598.56 436.153C1581.76 436.153 1569.37 431.841 1561.41 423.216C1553.67 414.592 1549.8 403.645 1549.8 390.377V206.607H1590.93Z" fill="#D6995C"/>
<path d="M1439.12 206.607C1442.66 206.607 1445.76 207.602 1448.41 209.592C1451.07 211.583 1452.95 214.236 1454.05 217.554L1523.38 435.49H1480.92L1428.51 259.018C1427.63 255.48 1426.74 251.941 1425.86 248.403C1424.97 244.865 1424.2 241.437 1423.53 238.12H1414.25C1413.58 241.437 1412.81 244.865 1411.92 248.403C1411.04 251.941 1410.04 255.48 1408.94 259.018L1356.86 435.49H1314.4L1383.73 217.554C1384.61 214.236 1386.38 211.583 1389.04 209.592C1391.91 207.602 1395.12 206.607 1398.66 206.607H1439.12ZM1477.6 337.634V370.142H1359.85V337.634H1477.6Z" fill="#D6995C"/>
<path d="M1194.22 205.944C1205.72 205.944 1217.44 205.944 1229.38 205.944C1241.54 205.944 1253.48 206.165 1265.2 206.607C1276.92 207.049 1287.98 207.713 1298.37 208.597L1296.38 239.447H1206.82C1200.63 239.447 1195.98 240.995 1192.89 244.091C1190.01 247.187 1188.58 252.052 1188.58 258.686V383.411C1188.58 390.045 1190.01 394.91 1192.89 398.006C1195.98 401.102 1200.63 402.65 1206.82 402.65H1296.38L1298.37 433.5C1287.98 434.384 1276.92 435.048 1265.2 435.49C1253.48 435.711 1241.54 435.822 1229.38 435.822C1217.44 436.043 1205.72 436.153 1194.22 436.153C1180.06 436.153 1168.67 432.283 1160.05 424.543C1151.65 416.582 1147.33 405.967 1147.11 392.699V249.398C1147.33 236.13 1151.65 225.625 1160.05 217.885C1168.67 209.924 1180.06 205.944 1194.22 205.944ZM1153.08 300.482H1283.78V331H1153.08V300.482Z" fill="#D6995C"/>
<path d="M1022.8 203.621C1041.82 203.621 1057.19 205.612 1068.91 209.592C1080.85 213.573 1089.47 220.428 1094.78 230.159C1100.31 239.668 1103.07 253.157 1103.07 270.628C1103.07 282.127 1101.63 291.968 1098.76 300.15C1096.11 308.111 1091.57 314.525 1085.16 319.39C1078.97 324.034 1070.56 327.019 1059.95 328.346V330.005C1063.71 330.889 1067.58 332.658 1071.56 335.312C1075.76 337.745 1079.52 341.283 1082.84 345.927C1086.38 350.571 1089.03 356.542 1090.8 363.84L1111.7 435.49H1067.91L1049 364.835C1046.57 356.874 1043.25 351.345 1039.05 348.249C1034.85 344.932 1029.1 343.273 1021.8 343.273C1007.43 343.273 995.155 343.273 984.982 343.273C974.809 343.052 966.295 342.831 959.44 342.61C952.806 342.389 946.945 342.278 941.859 342.278L942.854 310.765H1021.8C1031.75 310.544 1039.6 309.438 1045.35 307.448C1051.1 305.237 1055.19 301.477 1057.63 296.17C1060.06 290.641 1061.28 282.901 1061.28 272.95C1061.28 263.219 1060.06 255.701 1057.63 250.393C1055.19 245.086 1051.1 241.437 1045.35 239.447C1039.6 237.235 1031.75 236.13 1021.8 236.13C1002.34 236.13 985.645 236.24 971.713 236.461C957.781 236.682 948.272 236.904 943.186 237.125L938.542 206.607C947.388 205.722 955.681 205.059 963.421 204.617C971.382 204.174 980.006 203.953 989.294 203.953C998.582 203.732 1009.75 203.621 1022.8 203.621ZM979.343 206.607V435.49H938.542V206.607H979.343Z" fill="#D6995C"/>
<path d="M2892.41 202.468C2903.02 202.689 2913.64 203.132 2924.25 203.795C2935.09 204.459 2945.7 205.564 2956.1 207.112L2954.77 217.064C2945.04 216.621 2934.87 216.179 2924.25 215.737C2913.86 215.073 2903.35 214.742 2892.74 214.742C2882.79 214.742 2874.16 215.073 2866.86 215.737C2859.79 216.4 2853.93 218.169 2849.28 221.044C2844.64 223.919 2841.21 228.563 2839 234.976C2837.01 241.168 2836.02 250.125 2836.02 261.845C2836.02 277.546 2838.56 288.825 2843.64 295.68C2848.95 302.535 2857.8 306.958 2870.18 308.949L2919.94 317.241C2936.97 319.674 2948.91 325.645 2955.76 335.154C2962.62 344.442 2966.05 358.816 2966.05 378.277C2966.05 391.767 2964.5 402.603 2961.4 410.785C2958.31 418.746 2953.77 424.717 2947.8 428.697C2941.83 432.678 2934.42 435.332 2925.58 436.659C2916.73 437.986 2906.34 438.649 2894.4 438.649C2885.77 438.649 2875.82 438.428 2864.54 437.986C2853.26 437.543 2840.44 436.327 2826.06 434.337L2827.06 424.054C2836.79 424.717 2845.19 425.27 2852.27 425.712C2859.57 425.933 2866.53 426.154 2873.17 426.376C2879.8 426.376 2887.1 426.376 2895.06 426.376C2908.99 426.154 2920.05 424.938 2928.23 422.727C2936.64 420.515 2942.72 415.982 2946.48 409.126C2950.24 402.271 2952.12 391.988 2952.12 378.277C2952.12 366.999 2950.9 358.153 2948.47 351.74C2946.25 345.105 2942.5 340.13 2937.19 336.813C2932.1 333.274 2925.25 330.952 2916.62 329.847L2866.86 321.554C2850.5 319.121 2838.89 313.15 2832.03 303.641C2825.4 293.911 2822.08 279.868 2822.08 261.514C2822.08 248.024 2823.52 237.298 2826.4 229.337C2829.27 221.155 2833.58 215.184 2839.33 211.425C2845.08 207.444 2852.38 204.901 2861.23 203.795C2870.29 202.689 2880.69 202.247 2892.41 202.468Z" fill="#D6995C"/>
<path d="M2685.17 206.117C2696.01 206.117 2706.85 206.117 2717.68 206.117C2728.74 206.117 2739.68 206.228 2750.52 206.449C2761.36 206.67 2772.08 207.002 2782.7 207.444L2782.03 217.727H2687.5C2679.98 217.727 2673.89 220.16 2669.25 225.025C2664.61 229.669 2662.28 235.861 2662.28 243.601V397.516C2662.28 405.256 2664.61 411.559 2669.25 416.424C2673.89 421.068 2679.98 423.39 2687.5 423.39H2782.03L2782.7 433.673C2772.08 434.116 2761.36 434.447 2750.52 434.668C2739.68 434.889 2728.74 435 2717.68 435C2706.85 435 2696.01 435 2685.17 435C2674.34 435 2665.49 431.683 2658.64 425.049C2652 418.414 2648.68 410.011 2648.68 399.838V241.279C2648.68 230.885 2652 222.482 2658.64 216.069C2665.49 209.434 2674.34 206.117 2685.17 206.117ZM2654.32 306.958L2768.43 307.29V318.237L2654.32 318.568V306.958Z" fill="#D6995C"/>
<path d="M2513.92 203.463C2532.06 203.463 2546.54 205.233 2557.38 208.771C2568.21 212.088 2576.06 218.059 2580.93 226.683C2585.79 235.308 2588.23 247.471 2588.23 263.172C2588.23 279.537 2585.13 292.031 2578.94 300.656C2572.97 309.28 2563.13 314.256 2549.42 315.583V316.91C2566.44 318.458 2578.27 324.429 2584.91 334.822C2591.54 345.216 2594.86 359.59 2594.86 377.945C2594.86 393.646 2592.54 405.809 2587.89 414.434C2583.25 423.058 2575.73 429.14 2565.34 432.678C2554.94 435.995 2541.12 437.654 2523.87 437.654C2511.93 437.654 2501.65 437.543 2493.02 437.322C2484.62 437.322 2476.88 437.101 2469.8 436.659C2462.73 436.216 2455.1 435.663 2446.92 435L2451.56 424.717C2456.2 424.938 2464.94 425.159 2477.77 425.38C2490.59 425.601 2505.52 425.712 2522.55 425.712C2537.14 425.712 2548.64 424.385 2557.05 421.731C2565.45 419.078 2571.53 414.213 2575.29 407.136C2579.05 400.059 2580.93 389.887 2580.93 376.618C2580.93 362.244 2578.94 351.187 2574.96 343.447C2570.98 335.486 2564.45 329.957 2555.39 326.861C2546.54 323.765 2534.6 322.107 2519.56 321.885H2451.23V310.939H2519.56C2533.05 310.718 2543.78 309.391 2551.74 306.958C2559.92 304.305 2565.67 299.661 2568.99 293.026C2572.53 286.171 2574.29 276.551 2574.29 264.167C2574.29 250.899 2572.3 240.837 2568.32 233.981C2564.56 226.905 2558.15 222.039 2549.08 219.386C2540.24 216.732 2528.41 215.405 2513.59 215.405C2503.42 215.405 2494.24 215.516 2486.06 215.737C2477.88 215.737 2470.8 215.847 2464.83 216.069C2459.08 216.069 2454.66 216.179 2451.56 216.4L2446.92 206.117C2453.99 205.233 2460.63 204.68 2466.82 204.459C2473.01 204.016 2479.76 203.795 2487.05 203.795C2494.57 203.574 2503.53 203.463 2513.92 203.463ZM2460.52 206.117V435H2446.92V206.117H2460.52Z" fill="#D6995C"/>
<path d="M2303.93 202.137C2319.85 202.137 2333.34 204.237 2344.4 208.439C2355.45 212.42 2364.3 219.054 2370.93 228.342C2377.57 237.63 2382.32 249.793 2385.2 264.831C2388.29 279.868 2389.84 298.444 2389.84 320.559C2389.84 342.673 2388.29 361.249 2385.2 376.287C2382.32 391.324 2377.57 403.487 2370.93 412.775C2364.3 422.063 2355.45 428.808 2344.4 433.01C2333.34 436.99 2319.85 438.981 2303.93 438.981C2288.01 438.981 2274.52 436.99 2263.46 433.01C2252.4 428.808 2243.56 422.063 2236.92 412.775C2230.29 403.487 2225.42 391.324 2222.33 376.287C2219.23 361.249 2217.68 342.673 2217.68 320.559C2217.68 298.444 2219.23 279.868 2222.33 264.831C2225.42 249.793 2230.29 237.63 2236.92 228.342C2243.56 219.054 2252.4 212.42 2263.46 208.439C2274.52 204.237 2288.01 202.137 2303.93 202.137ZM2303.93 214.41C2286.01 214.41 2271.86 217.838 2261.47 224.693C2251.07 231.327 2243.56 242.385 2238.91 257.865C2234.27 273.345 2231.95 294.243 2231.95 320.559C2231.95 346.875 2234.27 367.773 2238.91 383.253C2243.56 398.733 2251.07 409.9 2261.47 416.756C2271.86 423.39 2286.01 426.707 2303.93 426.707C2321.62 426.707 2335.66 423.39 2346.06 416.756C2356.67 409.9 2364.19 398.733 2368.61 383.253C2373.26 367.773 2375.58 346.875 2375.58 320.559C2375.58 294.243 2373.26 273.345 2368.61 257.865C2364.19 242.385 2356.67 231.327 2346.06 224.693C2335.66 217.838 2321.62 214.41 2303.93 214.41Z" fill="#D6995C"/>
<path d="M2084.94 203.132C2100.64 203.132 2113.8 205.233 2124.42 209.434C2135.25 213.415 2143.99 220.049 2150.62 229.337C2157.26 238.404 2162.12 250.456 2165.22 265.494C2168.31 280.311 2169.86 298.665 2169.86 320.559C2169.86 342.231 2168.31 360.585 2165.22 375.623C2162.12 390.661 2157.26 402.824 2150.62 412.112C2143.99 421.179 2135.25 427.813 2124.42 432.015C2113.8 435.995 2100.64 437.986 2084.94 437.986C2070.13 437.986 2056.31 437.654 2043.48 436.99C2030.87 436.548 2018.93 435.885 2007.65 435L2013.96 424.717C2024.35 424.938 2035.3 425.159 2046.8 425.38C2058.3 425.601 2071.01 425.712 2084.94 425.712C2102.41 425.712 2116.24 422.395 2126.41 415.761C2136.8 409.126 2144.21 398.18 2148.63 382.921C2153.28 367.441 2155.6 346.653 2155.6 320.559C2155.6 294.464 2153.28 273.787 2148.63 258.528C2144.21 243.048 2136.8 231.991 2126.41 225.357C2116.24 218.722 2102.41 215.405 2084.94 215.405C2071.01 215.405 2058.3 215.516 2046.8 215.737C2035.3 215.958 2024.13 216.179 2013.29 216.4L2007.65 206.117C2018.93 205.233 2030.98 204.569 2043.81 204.127C2056.64 203.463 2070.35 203.132 2084.94 203.132ZM2021.25 206.117V435H2007.65V206.117H2021.25Z" fill="#D6995C"/>
<path d="M1883.13 206.117C1884.68 206.117 1885.89 206.449 1886.78 207.112C1887.88 207.776 1888.66 208.881 1889.1 210.429L1969.04 435H1954.78L1885.12 235.971C1884.01 232.875 1882.91 229.779 1881.8 226.683C1880.7 223.587 1879.59 220.491 1878.48 217.395H1869.2C1868.09 220.491 1866.99 223.587 1865.88 226.683C1864.77 229.779 1863.67 232.875 1862.56 235.971L1792.9 435H1778.64L1858.58 210.429C1859.02 208.881 1859.8 207.776 1860.9 207.112C1862.01 206.449 1863.23 206.117 1864.55 206.117H1883.13ZM1931.56 342.452V354.393H1815.46V342.452H1931.56Z" fill="#D6995C"/>
<path d="M405.966 114.385C525.811 112.895 636.443 189.59 675.849 297.112C679.714 307.636 690.386 341.327 690.386 350.71V740.706H571.27V371.665C571.27 363.609 564.779 342.864 561.595 334.365C539.546 275.482 477.387 229.311 410.925 229.427C408.883 229.427 405.966 230.289 405.966 231.965V342.561C405.966 343.423 393.69 343.446 388.245 345.378C372.881 350.803 357.348 370.012 357.348 385.635V740.706H235.801V373.994C235.801 366.31 244.576 338.277 247.907 329.709C270.928 270.243 337.049 226.354 403.535 228.473V114.385C348.839 117.574 297.863 130.241 251.553 158.576C171.259 207.704 122.738 291.757 119.019 383.214L119.116 740.706H0V355.39C14.853 174.362 169.46 20.9022 358.587 2.64807C366.658 1.87972 391.065 -0.541747 397.507 0.110185C399.986 0.366301 405.966 1.29763 405.966 3.78895V114.385Z" fill="#D6995C"/>
<path d="M388.321 524.759C388.321 512.2 398.502 502.019 411.061 502.019C423.62 502.019 433.8 512.2 433.8 524.759C433.8 537.317 423.62 547.498 411.061 547.498C398.502 547.498 388.321 537.317 388.321 524.759Z" fill="white"/>
<path d="M2940.42 669.99V651.415L2942.36 656.78L2921.97 623.05H2931.3L2947.66 650.208H2942.43L2958.92 623.05H2967.51L2947.12 656.78L2949.13 651.415V669.99H2940.42Z" fill="white"/>
<path d="M2843.32 669.99L2864.44 623.05H2873.02L2894.21 669.99H2885.09L2866.92 627.677H2870.41L2852.3 669.99H2843.32ZM2853.04 659.127L2855.39 652.287H2880.73L2883.08 659.127H2853.04Z" fill="white"/>
<path d="M2755.31 669.99L2739.75 623.05H2748.8L2762.68 665.497H2758.19L2772.61 623.05H2780.65L2794.67 665.497H2790.31L2804.53 623.05H2812.84L2797.28 669.99H2788.03L2775.22 631.701H2777.64L2764.63 669.99H2755.31Z" fill="white"/>
<path d="M2658.35 669.99L2679.47 623.05H2688.06L2709.25 669.99H2700.13L2681.95 627.677H2685.44L2667.34 669.99H2658.35ZM2668.07 659.127L2670.42 652.287H2695.77L2698.11 659.127H2668.07Z" fill="white"/>
<path d="M2534.77 669.99V623.05H2554.08C2558.24 623.05 2561.79 623.721 2564.74 625.062C2567.74 626.403 2570.04 628.325 2571.65 630.829C2573.26 633.332 2574.06 636.305 2574.06 639.747C2574.06 643.19 2573.26 646.162 2571.65 648.666C2570.04 651.169 2567.74 653.092 2564.74 654.433C2561.79 655.774 2558.24 656.444 2554.08 656.444H2539.6L2543.48 652.354V669.99H2534.77ZM2543.48 653.293L2539.6 649.068H2553.68C2557.52 649.068 2560.41 648.263 2562.33 646.654C2564.29 645 2565.28 642.698 2565.28 639.747C2565.28 636.752 2564.29 634.45 2562.33 632.841C2560.41 631.231 2557.52 630.426 2553.68 630.426H2539.6L2543.48 626.135V653.293Z" fill="white"/>
<path d="M2466.38 642.564H2489.71V649.739H2466.38V642.564ZM2467.05 662.681H2493.53V669.99H2458.33V623.05H2492.59V630.359H2467.05V662.681Z" fill="white"/>
<path d="M2396 669.99V630.426H2380.44V623.05H2420.27V630.426H2404.71V669.99H2396Z" fill="white"/>
<path d="M2327.99 670.66C2324.33 670.66 2320.82 670.146 2317.46 669.118C2314.11 668.045 2311.45 666.682 2309.48 665.028L2312.5 658.255C2314.38 659.73 2316.7 660.96 2319.47 661.943C2322.25 662.926 2325.09 663.418 2327.99 663.418C2330.45 663.418 2332.44 663.15 2333.96 662.614C2335.48 662.077 2336.6 661.362 2337.31 660.468C2338.03 659.529 2338.38 658.478 2338.38 657.316C2338.38 655.886 2337.87 654.746 2336.84 653.896C2335.81 653.002 2334.47 652.309 2332.82 651.817C2331.21 651.281 2329.4 650.789 2327.39 650.342C2325.42 649.895 2323.43 649.381 2321.42 648.8C2319.45 648.174 2317.64 647.392 2315.99 646.453C2314.38 645.469 2313.06 644.173 2312.03 642.564C2311 640.954 2310.49 638.898 2310.49 636.394C2310.49 633.846 2311.16 631.522 2312.5 629.421C2313.89 627.275 2315.97 625.576 2318.74 624.324C2321.55 623.028 2325.11 622.38 2329.4 622.38C2332.22 622.38 2335.01 622.737 2337.78 623.453C2340.55 624.168 2342.97 625.196 2345.02 626.537L2342.27 633.31C2340.17 632.058 2338 631.142 2335.77 630.561C2333.53 629.935 2331.39 629.622 2329.33 629.622C2326.92 629.622 2324.95 629.912 2323.43 630.494C2321.96 631.075 2320.86 631.835 2320.15 632.773C2319.47 633.712 2319.14 634.785 2319.14 635.992C2319.14 637.423 2319.63 638.585 2320.61 639.479C2321.64 640.328 2322.96 640.999 2324.57 641.491C2326.23 641.983 2328.06 642.474 2330.07 642.966C2332.08 643.413 2334.07 643.927 2336.04 644.508C2338.05 645.089 2339.86 645.849 2341.47 646.788C2343.12 647.727 2344.44 649.001 2345.43 650.61C2346.45 652.22 2346.97 654.254 2346.97 656.713C2346.97 659.216 2346.28 661.541 2344.89 663.686C2343.55 665.788 2341.47 667.486 2338.65 668.783C2335.84 670.034 2332.28 670.66 2327.99 670.66Z" fill="white"/>
<path d="M2175.01 669.99L2196.13 623.05H2204.71L2225.9 669.99H2216.79L2198.61 627.677H2202.1L2183.99 669.99H2175.01ZM2184.73 659.127L2187.08 652.287H2212.43L2214.77 659.127H2184.73Z" fill="white"/>
<path d="M2069.27 669.99V630.426H2053.71V623.05H2093.54V630.426H2077.98V669.99H2069.27Z" fill="white"/>
<path d="M2001.26 670.66C1997.6 670.66 1994.09 670.146 1990.73 669.118C1987.38 668.045 1984.72 666.682 1982.75 665.028L1985.77 658.255C1987.65 659.73 1989.97 660.96 1992.75 661.943C1995.52 662.926 1998.36 663.418 2001.26 663.418C2003.72 663.418 2005.71 663.15 2007.23 662.614C2008.75 662.077 2009.87 661.362 2010.58 660.468C2011.3 659.529 2011.66 658.478 2011.66 657.316C2011.66 655.886 2011.14 654.746 2010.11 653.896C2009.08 653.002 2007.74 652.309 2006.09 651.817C2004.48 651.281 2002.67 650.789 2000.66 650.342C1998.69 649.895 1996.7 649.381 1994.69 648.8C1992.72 648.174 1990.91 647.392 1989.26 646.453C1987.65 645.469 1986.33 644.173 1985.3 642.564C1984.27 640.954 1983.76 638.898 1983.76 636.394C1983.76 633.846 1984.43 631.522 1985.77 629.421C1987.16 627.275 1989.24 625.576 1992.01 624.324C1994.82 623.028 1998.38 622.38 2002.67 622.38C2005.49 622.38 2008.28 622.737 2011.05 623.453C2013.82 624.168 2016.24 625.196 2018.29 626.537L2015.54 633.31C2013.44 632.058 2011.28 631.142 2009.04 630.561C2006.8 629.935 2004.66 629.622 2002.6 629.622C2000.19 629.622 1998.22 629.912 1996.7 630.494C1995.23 631.075 1994.13 631.835 1993.42 632.773C1992.75 633.712 1992.41 634.785 1992.41 635.992C1992.41 637.423 1992.9 638.585 1993.89 639.479C1994.91 640.328 1996.23 640.999 1997.84 641.491C1999.5 641.983 2001.33 642.474 2003.34 642.966C2005.35 643.413 2007.34 643.927 2009.31 644.508C2011.32 645.089 2013.13 645.849 2014.74 646.788C2016.39 647.727 2017.71 649.001 2018.7 650.61C2019.72 652.22 2020.24 654.254 2020.24 656.713C2020.24 659.216 2019.55 661.541 2018.16 663.686C2016.82 665.788 2014.74 667.486 2011.92 668.783C2009.11 670.034 2005.55 670.66 2001.26 670.66Z" fill="white"/>
<path d="M1922.47 670.66C1916.03 670.66 1910.98 668.85 1907.31 665.229C1903.69 661.608 1901.88 656.377 1901.88 649.538V623.05H1910.6V649.202C1910.6 654.03 1911.62 657.54 1913.68 659.73C1915.78 661.921 1918.73 663.016 1922.53 663.016C1926.33 663.016 1929.26 661.921 1931.32 659.73C1933.37 657.54 1934.4 654.03 1934.4 649.202V623.05H1942.98V649.538C1942.98 656.377 1941.15 661.608 1937.49 665.229C1933.86 668.85 1928.86 670.66 1922.47 670.66Z" fill="white"/>
<path d="M1842.71 670.66C1839.72 670.66 1836.95 670.079 1834.4 668.917C1831.89 667.755 1829.84 666.078 1828.23 663.888L1833.19 657.92C1834.49 659.708 1835.9 661.049 1837.42 661.943C1838.98 662.837 1840.68 663.284 1842.51 663.284C1847.38 663.284 1849.82 660.401 1849.82 654.634V630.359H1833.12V623.05H1858.54V654.164C1858.54 659.708 1857.17 663.843 1854.45 666.57C1851.77 669.297 1847.85 670.66 1842.71 670.66Z" fill="white"/>
<path d="M1716.96 642.564H1740.3V649.739H1716.96V642.564ZM1717.63 662.681H1744.12V669.99H1708.92V623.05H1743.18V630.359H1717.63V662.681Z" fill="white"/>
<path d="M1628.35 669.99V623.05H1647.66C1651.82 623.05 1655.37 623.721 1658.32 625.062C1661.32 626.403 1663.62 628.325 1665.23 630.829C1666.84 633.332 1667.65 636.305 1667.65 639.747C1667.65 643.19 1666.84 646.162 1665.23 648.666C1663.62 651.125 1661.32 653.024 1658.32 654.366C1655.37 655.662 1651.82 656.31 1647.66 656.31H1633.18L1637.07 652.354V669.99H1628.35ZM1659.06 669.99L1647.19 652.957H1656.51L1668.45 669.99H1659.06ZM1637.07 653.293L1633.18 649.135H1647.26C1651.11 649.135 1653.99 648.308 1655.91 646.654C1657.88 645 1658.86 642.698 1658.86 639.747C1658.86 636.752 1657.88 634.45 1655.91 632.841C1653.99 631.231 1651.11 630.426 1647.26 630.426H1633.18L1637.07 626.135V653.293Z" fill="white"/>
<path d="M1564.11 670.66C1557.67 670.66 1552.62 668.85 1548.95 665.229C1545.33 661.608 1543.52 656.377 1543.52 649.538V623.05H1552.24V649.202C1552.24 654.03 1553.27 657.54 1555.32 659.73C1557.42 661.921 1560.37 663.016 1564.17 663.016C1567.97 663.016 1570.9 661.921 1572.96 659.73C1575.01 657.54 1576.04 654.03 1576.04 649.202V623.05H1584.63V649.538C1584.63 656.377 1582.79 661.608 1579.13 665.229C1575.51 668.85 1570.5 670.66 1564.11 670.66Z" fill="white"/>
<path d="M1482.44 669.99V630.426H1466.88V623.05H1506.72V630.426H1491.16V669.99H1482.44Z" fill="white"/>
<path d="M1409.53 670.66C1403.09 670.66 1398.04 668.85 1394.37 665.229C1390.75 661.608 1388.94 656.377 1388.94 649.538V623.05H1397.66V649.202C1397.66 654.03 1398.68 657.54 1400.74 659.73C1402.84 661.921 1405.79 663.016 1409.59 663.016C1413.39 663.016 1416.32 661.921 1418.38 659.73C1420.43 657.54 1421.46 654.03 1421.46 649.202V623.05H1430.05V649.538C1430.05 656.377 1428.21 661.608 1424.55 665.229C1420.93 668.85 1415.92 670.66 1409.53 670.66Z" fill="white"/>
<path d="M1323.11 644.642H1346.51V652.019H1323.11V644.642ZM1323.85 669.99H1315.13V623.05H1349.39V630.359H1323.85V669.99Z" fill="white"/>
<path d="M1184.52 669.99V623.05H1203.83C1207.99 623.05 1211.54 623.721 1214.49 625.062C1217.49 626.403 1219.79 628.325 1221.4 630.829C1223.01 633.332 1223.81 636.305 1223.81 639.747C1223.81 643.19 1223.01 646.162 1221.4 648.666C1219.79 651.125 1217.49 653.024 1214.49 654.366C1211.54 655.662 1207.99 656.31 1203.83 656.31H1189.34L1193.23 652.354V669.99H1184.52ZM1215.23 669.99L1203.36 652.957H1212.68L1224.62 669.99H1215.23ZM1193.23 653.293L1189.34 649.135H1203.43C1207.27 649.135 1210.15 648.308 1212.08 646.654C1214.04 645 1215.03 642.698 1215.03 639.747C1215.03 636.752 1214.04 634.45 1212.08 632.841C1210.15 631.231 1207.27 630.426 1203.43 630.426H1189.34L1193.23 626.135V653.293Z" fill="white"/>
<path d="M1120.27 670.66C1113.83 670.66 1108.78 668.85 1105.12 665.229C1101.5 661.608 1099.69 656.377 1099.69 649.538V623.05H1108.4V649.202C1108.4 654.03 1109.43 657.54 1111.49 659.73C1113.59 661.921 1116.54 663.016 1120.34 663.016C1124.14 663.016 1127.07 661.921 1129.12 659.73C1131.18 657.54 1132.21 654.03 1132.21 649.202V623.05H1140.79V649.538C1140.79 656.377 1138.96 661.608 1135.29 665.229C1131.67 668.85 1126.66 670.66 1120.27 670.66Z" fill="white"/>
<path d="M1034.12 670.66C1030.45 670.66 1027.08 670.057 1023.99 668.85C1020.91 667.643 1018.22 665.966 1015.95 663.821C1013.67 661.63 1011.9 659.082 1010.65 656.176C1009.4 653.226 1008.77 650.007 1008.77 646.52C1008.77 643.033 1009.4 639.837 1010.65 636.931C1011.9 633.98 1013.67 631.432 1015.95 629.287C1018.22 627.096 1020.91 625.397 1023.99 624.19C1027.08 622.983 1030.43 622.38 1034.05 622.38C1037.72 622.38 1041.07 622.983 1044.11 624.19C1047.19 625.397 1049.88 627.096 1052.16 629.287C1054.44 631.432 1056.2 633.98 1057.45 636.931C1058.7 639.837 1059.33 643.033 1059.33 646.52C1059.33 650.007 1058.7 653.226 1057.45 656.176C1056.2 659.127 1054.44 661.675 1052.16 663.821C1049.88 665.966 1047.19 667.643 1044.11 668.85C1041.07 670.057 1037.74 670.66 1034.12 670.66ZM1034.05 663.016C1036.42 663.016 1038.61 662.614 1040.62 661.809C1042.63 661.004 1044.38 659.864 1045.85 658.389C1047.33 656.869 1048.47 655.126 1049.27 653.159C1050.12 651.147 1050.55 648.934 1050.55 646.52C1050.55 644.106 1050.12 641.915 1049.27 639.948C1048.47 637.937 1047.33 636.193 1045.85 634.718C1044.38 633.198 1042.63 632.036 1040.62 631.231C1038.61 630.426 1036.42 630.024 1034.05 630.024C1031.68 630.024 1029.49 630.426 1027.48 631.231C1025.51 632.036 1023.77 633.198 1022.25 634.718C1020.77 636.193 1019.61 637.937 1018.76 639.948C1017.96 641.915 1017.55 644.106 1017.55 646.52C1017.55 648.889 1017.96 651.08 1018.76 653.092C1019.61 655.103 1020.77 656.869 1022.25 658.389C1023.72 659.864 1025.47 661.004 1027.48 661.809C1029.49 662.614 1031.68 663.016 1034.05 663.016Z" fill="white"/>
<path d="M949.837 669.99V651.415L951.782 656.78L931.396 623.05H940.717L957.079 650.208H951.849L968.345 623.05H976.928L956.543 656.78L958.554 651.415V669.99H949.837Z" fill="white"/>
</svg>
