<svg width="3472" height="552" viewBox="0 0 3472 552" fill="none" xmlns="http://www.w3.org/2000/svg">
<path d="M302.247 85.1607C391.473 84.0512 473.839 141.152 503.177 221.203C506.055 229.039 514 254.122 514 261.108V551.464H425.317V276.709C425.317 270.711 420.485 255.266 418.114 248.939C401.698 205.099 355.42 170.725 305.939 170.811C304.418 170.811 302.247 171.453 302.247 172.701V255.041C302.247 255.682 293.107 255.699 289.053 257.138C277.614 261.177 266.049 275.478 266.049 287.11V551.464H175.556V278.442C175.556 272.722 182.09 251.851 184.569 245.472C201.709 201.199 250.937 168.523 300.437 170.101V85.1607C259.715 87.5355 221.762 96.9656 187.284 118.062C127.505 154.638 91.3798 217.216 88.6107 285.307L88.6831 551.464H0V264.592C11.0582 129.815 126.165 15.5619 266.972 1.97151C272.981 1.39947 291.152 -0.403337 295.948 0.0820341C297.794 0.272716 302.247 0.966103 302.247 2.82091V85.1607Z" fill="white"/>
<rect x="289.109" y="373.759" width="33.8597" height="33.8597" rx="16.9299" fill="white"/>
<path d="M1587.88 117.125V358.011C1587.88 366.798 1590.15 373.464 1594.7 378.009C1599.54 382.251 1606.36 384.372 1615.15 384.372H1726.05L1728.77 427.549C1708.17 429.367 1686.66 430.428 1664.23 430.731C1642.11 431.337 1620.15 431.64 1598.33 431.64C1575.3 431.64 1558.34 425.731 1547.43 413.914C1536.82 402.097 1531.52 387.099 1531.52 368.919V117.125H1587.88Z" fill="white"/>
<path d="M1379.88 117.125C1384.72 117.125 1388.97 118.489 1392.6 121.216C1396.24 123.943 1398.81 127.579 1400.33 132.124L1495.32 430.731H1437.14L1365.33 188.936C1364.12 184.088 1362.91 179.24 1361.7 174.392C1360.48 169.544 1359.42 164.848 1358.52 160.303H1345.79C1344.88 164.848 1343.82 169.544 1342.61 174.392C1341.4 179.24 1340.03 184.088 1338.52 188.936L1267.16 430.731H1208.98L1303.98 132.124C1305.19 127.579 1307.61 123.943 1311.25 121.216C1315.19 118.489 1319.58 117.125 1324.43 117.125H1379.88ZM1432.6 296.653V341.194H1271.25V296.653H1432.6Z" fill="white"/>
<path d="M1044.31 116.215C1060.07 116.215 1076.13 116.215 1092.49 116.215C1109.16 116.215 1125.52 116.518 1141.58 117.124C1157.64 117.73 1172.79 118.639 1187.03 119.851L1184.3 162.12H1061.59C1053.1 162.12 1046.74 164.241 1042.5 168.483C1038.56 172.725 1036.59 179.391 1036.59 188.481V359.373C1036.59 368.463 1038.56 375.13 1042.5 379.372C1046.74 383.614 1053.1 385.735 1061.59 385.735H1184.3L1187.03 428.003C1172.79 429.215 1157.64 430.124 1141.58 430.73C1125.52 431.033 1109.16 431.185 1092.49 431.185C1076.13 431.488 1060.07 431.639 1044.31 431.639C1024.92 431.639 1009.32 426.337 997.501 415.732C985.987 404.824 980.078 390.28 979.775 372.099V175.755C980.078 157.575 985.987 143.182 997.501 132.577C1009.32 121.669 1024.92 116.215 1044.31 116.215ZM987.956 245.748H1167.03V287.562H987.956V245.748Z" fill="white"/>
<path d="M809.443 113.034C835.501 113.034 856.56 115.761 872.619 121.215C888.981 126.669 900.798 136.062 908.07 149.394C915.645 162.423 919.433 180.906 919.433 204.843C919.433 220.599 917.463 234.083 913.524 245.294C909.888 256.202 903.677 264.989 894.89 271.655C886.405 278.018 874.891 282.109 860.347 283.927V286.199C865.498 287.411 870.801 289.835 876.255 293.471C882.012 296.804 887.163 301.652 891.708 308.015C896.556 314.378 900.192 322.559 902.616 332.558L931.25 430.731H871.255L845.349 333.922C842.016 323.014 837.471 315.439 831.714 311.197C825.957 306.652 818.079 304.379 808.08 304.379C788.385 304.379 771.568 304.379 757.63 304.379C743.692 304.076 732.027 303.773 722.634 303.47C713.544 303.167 705.514 303.016 698.545 303.016L699.909 259.838H808.08C821.715 259.535 832.471 258.02 840.349 255.293C848.227 252.263 853.833 247.112 857.166 239.84C860.499 232.265 862.165 221.66 862.165 208.025C862.165 194.693 860.499 184.391 857.166 177.119C853.833 169.847 848.227 164.847 840.349 162.12C832.471 159.09 821.715 157.575 808.08 157.575C781.416 157.575 758.539 157.727 739.45 158.03C720.361 158.333 707.332 158.636 700.363 158.939L694 117.125C706.12 115.913 717.483 115.004 728.088 114.398C738.996 113.792 750.813 113.489 763.539 113.489C776.265 113.186 791.566 113.034 809.443 113.034ZM749.904 117.125V430.731H694V117.125H749.904Z" fill="white"/>
<path d="M3371.1 111.454C3385.64 111.757 3400.19 112.363 3414.73 113.272C3429.58 114.181 3444.12 115.696 3458.36 117.817L3456.55 131.452C3443.21 130.846 3429.28 130.24 3414.73 129.634C3400.49 128.725 3386.1 128.271 3371.55 128.271C3357.92 128.271 3346.1 128.725 3336.1 129.634C3326.41 130.543 3318.38 132.967 3312.02 136.906C3305.65 140.845 3300.96 147.208 3297.93 155.995C3295.2 164.479 3293.84 176.751 3293.84 192.81C3293.84 214.323 3297.32 229.776 3304.29 239.169C3311.56 248.562 3323.68 254.622 3340.65 257.349L3408.82 268.712C3432.15 272.045 3448.52 280.226 3457.91 293.255C3467.3 305.981 3472 325.676 3472 352.34C3472 370.823 3469.88 385.67 3465.64 396.881C3461.39 407.789 3455.18 415.97 3447 421.424C3438.82 426.878 3428.67 430.514 3416.55 432.332C3404.43 434.15 3390.19 435.059 3373.83 435.059C3362.01 435.059 3348.38 434.756 3332.92 434.15C3317.47 433.544 3299.9 431.877 3280.2 429.15L3281.56 415.061C3294.9 415.97 3306.41 416.727 3316.11 417.333C3326.1 417.636 3335.65 417.939 3344.74 418.242C3353.83 418.242 3363.83 418.242 3374.74 418.242C3393.83 417.939 3408.98 416.273 3420.19 413.243C3431.7 410.213 3440.03 404.001 3445.18 394.608C3450.34 385.215 3452.91 371.126 3452.91 352.34C3452.91 336.887 3451.24 324.767 3447.91 315.98C3444.88 306.89 3439.73 300.072 3432.46 295.527C3425.49 290.679 3416.1 287.498 3404.28 285.983L3336.1 274.62C3313.68 271.287 3297.77 263.106 3288.38 250.077C3279.29 236.745 3274.75 217.504 3274.75 192.355C3274.75 173.872 3276.72 159.177 3280.65 148.269C3284.59 137.058 3290.5 128.877 3298.38 123.726C3306.26 118.272 3316.26 114.787 3328.38 113.272C3340.8 111.757 3355.04 111.151 3371.1 111.454Z" fill="white"/>
<path d="M3087.16 116.454C3102.01 116.454 3116.85 116.454 3131.7 116.454C3146.85 116.454 3161.85 116.605 3176.7 116.908C3191.54 117.211 3206.24 117.666 3220.78 118.272L3219.87 132.361H3090.34C3080.04 132.361 3071.71 135.694 3065.34 142.36C3058.98 148.723 3055.8 157.207 3055.8 167.812V378.701C3055.8 389.306 3058.98 397.941 3065.34 404.607C3071.71 410.97 3080.04 414.152 3090.34 414.152H3219.87L3220.78 428.241C3206.24 428.847 3191.54 429.302 3176.7 429.605C3161.85 429.908 3146.85 430.059 3131.7 430.059C3116.85 430.059 3102.01 430.059 3087.16 430.059C3072.31 430.059 3060.19 425.514 3050.8 416.424C3041.71 407.334 3037.16 395.82 3037.16 381.882V164.631C3037.16 150.39 3041.71 138.876 3050.8 130.089C3060.19 120.999 3072.31 116.454 3087.16 116.454ZM3044.89 254.622L3201.24 255.076V270.075L3044.89 270.53V254.622Z" fill="white"/>
<path d="M2852.52 112.818C2877.36 112.818 2897.21 115.242 2912.06 120.09C2926.9 124.635 2937.66 132.816 2944.33 144.633C2950.99 156.45 2954.33 173.115 2954.33 194.628C2954.33 217.05 2950.08 234.17 2941.6 245.987C2933.42 257.804 2919.94 264.621 2901.15 266.439V268.257C2924.48 270.378 2940.69 278.559 2949.78 292.8C2958.87 307.041 2963.42 326.736 2963.42 351.885C2963.42 373.399 2960.23 390.064 2953.87 401.881C2947.51 413.698 2937.21 422.03 2922.97 426.878C2908.72 431.423 2889.79 433.696 2866.15 433.696C2849.79 433.696 2835.7 433.544 2823.88 433.241C2812.37 433.241 2801.77 432.938 2792.07 432.332C2782.37 431.726 2771.92 430.969 2760.71 430.06L2767.07 415.97C2773.43 416.273 2785.4 416.576 2802.98 416.879C2820.55 417.182 2841 417.334 2864.34 417.334C2884.33 417.334 2900.09 415.516 2911.6 411.88C2923.12 408.244 2931.45 401.578 2936.6 391.882C2941.75 382.186 2944.33 368.248 2944.33 350.067C2944.33 330.372 2941.6 315.222 2936.15 304.617C2930.69 293.709 2921.75 286.134 2909.33 281.892C2897.21 277.65 2880.85 275.378 2860.24 275.075H2766.62V260.076H2860.24C2878.73 259.773 2893.42 257.955 2904.33 254.622C2915.54 250.986 2923.42 244.623 2927.97 235.533C2932.81 226.14 2935.24 212.96 2935.24 195.992C2935.24 177.812 2932.51 164.025 2927.06 154.632C2921.91 144.936 2913.12 138.27 2900.7 134.634C2888.58 130.998 2872.36 129.18 2852.06 129.18C2838.13 129.18 2825.55 129.331 2814.34 129.634C2803.13 129.634 2793.43 129.786 2785.25 130.089C2777.37 130.089 2771.31 130.24 2767.07 130.543L2760.71 116.454C2770.41 115.242 2779.49 114.484 2787.98 114.181C2796.46 113.575 2805.7 113.272 2815.7 113.272C2826.01 112.969 2838.28 112.818 2852.52 112.818ZM2779.34 116.454V430.06H2760.71V116.454H2779.34Z" fill="white"/>
<path d="M2564.79 111C2586.61 111 2605.09 113.878 2620.24 119.635C2635.39 125.089 2647.51 134.179 2656.6 146.905C2665.69 159.631 2672.21 176.296 2676.14 196.9C2680.39 217.504 2682.51 242.956 2682.51 273.256C2682.51 303.557 2680.39 329.009 2676.14 349.613C2672.21 370.217 2665.69 386.882 2656.6 399.608C2647.51 412.334 2635.39 421.575 2620.24 427.332C2605.09 432.786 2586.61 435.513 2564.79 435.513C2542.98 435.513 2524.49 432.786 2509.34 427.332C2494.19 421.575 2482.07 412.334 2472.98 399.608C2463.89 386.882 2457.23 370.217 2452.98 349.613C2448.74 329.009 2446.62 303.557 2446.62 273.256C2446.62 242.956 2448.74 217.504 2452.98 196.9C2457.23 176.296 2463.89 159.631 2472.98 146.905C2482.07 134.179 2494.19 125.089 2509.34 119.635C2524.49 113.878 2542.98 111 2564.79 111ZM2564.79 127.816C2540.25 127.816 2520.86 132.513 2506.62 141.906C2492.37 150.996 2482.07 166.146 2475.71 187.356C2469.35 208.566 2466.16 237.199 2466.16 273.256C2466.16 309.314 2469.35 337.947 2475.71 359.157C2482.07 380.367 2492.37 395.669 2506.62 405.062C2520.86 414.152 2540.25 418.697 2564.79 418.697C2589.03 418.697 2608.27 414.152 2622.51 405.062C2637.06 395.669 2647.36 380.367 2653.42 359.157C2659.78 337.947 2662.96 309.314 2662.96 273.256C2662.96 237.199 2659.78 208.566 2653.42 187.356C2647.36 166.146 2637.06 150.996 2622.51 141.906C2608.27 132.513 2589.03 127.816 2564.79 127.816Z" fill="white"/>
<path d="M2264.75 112.363C2286.26 112.363 2304.29 115.242 2318.84 120.999C2333.68 126.453 2345.65 135.543 2354.74 148.269C2363.83 160.692 2370.5 177.205 2374.74 197.81C2378.98 218.111 2381.1 243.26 2381.1 273.257C2381.1 302.951 2378.98 328.1 2374.74 348.704C2370.5 369.308 2363.83 385.973 2354.74 398.699C2345.65 411.122 2333.68 420.212 2318.84 425.969C2304.29 431.423 2286.26 434.15 2264.75 434.15C2244.45 434.15 2225.51 433.696 2207.94 432.787C2190.67 432.181 2174.3 431.272 2158.85 430.06L2167.49 415.97C2181.73 416.273 2196.73 416.576 2212.48 416.879C2228.24 417.182 2245.66 417.334 2264.75 417.334C2288.69 417.334 2307.62 412.789 2321.56 403.699C2335.8 394.609 2345.95 379.61 2352.01 358.703C2358.38 337.493 2361.56 309.011 2361.56 273.257C2361.56 237.503 2358.38 209.172 2352.01 188.265C2345.95 167.055 2335.8 151.905 2321.56 142.815C2307.62 133.725 2288.69 129.18 2264.75 129.18C2245.66 129.18 2228.24 129.331 2212.48 129.634C2196.73 129.937 2181.43 130.24 2166.58 130.543L2158.85 116.454C2174.3 115.242 2190.82 114.333 2208.39 113.727C2225.97 112.818 2244.75 112.363 2264.75 112.363ZM2177.49 116.454V430.06H2158.85V116.454H2177.49Z" fill="white"/>
<path d="M1988.23 116.454C1990.35 116.454 1992.02 116.908 1993.23 117.817C1994.75 118.726 1995.81 120.241 1996.41 122.362L2105.95 430.059H2086.4L1990.96 157.359C1989.44 153.117 1987.93 148.875 1986.41 144.633C1984.9 140.391 1983.38 136.149 1981.87 131.907H1969.14C1967.63 136.149 1966.11 140.391 1964.6 144.633C1963.08 148.875 1961.57 153.117 1960.05 157.359L1864.61 430.059H1845.06L1954.6 122.362C1955.21 120.241 1956.27 118.726 1957.78 117.817C1959.3 116.908 1960.96 116.454 1962.78 116.454H1988.23ZM2054.59 303.254V319.616H1895.51V303.254H2054.59Z" fill="white"/>
</svg>
